<?xml version="1.0" encoding="utf-8"?>
<!-- Generator: Adobe Illustrator 22.0.0, SVG Export Plug-In . SVG Version: 6.00 Build 0)  -->
<svg version="1.1" id="Layer_1" xmlns="http://www.w3.org/2000/svg" xmlns:xlink="http://www.w3.org/1999/xlink" x="0px" y="0px"
	 viewBox="0 0 113.4 76.4" style="enable-background:new 0 0 113.4 76.4;" xml:space="preserve">
<style type="text/css">
	.st0{fill:url(#XMLID_3_);}
	.st1{fill:url(#XMLID_4_);}
	.st2{fill:url(#XMLID_5_);}
	.st3{fill:#414042;}
	.st4{fill:url(#XMLID_6_);}
	.st5{fill:url(#XMLID_7_);}
	.st6{fill:url(#XMLID_8_);}
</style>
<g>
	<g id="Layer_2_1_">
		
			<radialGradient id="XMLID_3_" cx="59.9228" cy="-612.3735" r="33.6422" gradientTransform="matrix(1 0 0 -0.2214 0 -66.6158)" gradientUnits="userSpaceOnUse">
			<stop  offset="0" style="stop-color:#000000;stop-opacity:0.2"/>
			<stop  offset="0.2956" style="stop-color:#000000;stop-opacity:0.1"/>
			<stop  offset="1" style="stop-color:#000000;stop-opacity:0"/>
		</radialGradient>
		<ellipse id="XMLID_1_" class="st0" cx="59.9" cy="69" rx="33.6" ry="7.4"/>
	</g>
	<g id="Layer_1_1_">
		
			<linearGradient id="XMLID_4_" gradientUnits="userSpaceOnUse" x1="76.1529" y1="458.269" x2="114.1777" y2="468.1044" gradientTransform="matrix(1 0 0 -1 0 481.2)">
			<stop  offset="0" style="stop-color:#58595B"/>
			<stop  offset="0.2863" style="stop-color:#1A1A1A"/>
		</linearGradient>
		<path id="XMLID_36_" class="st1" d="M113.4,6.9c-4.5,5.5-9.1,11-13.8,16.5c-8.5-2.2-17-4.3-25.5-6.4
			C87.4,13.6,100.5,10.3,113.4,6.9z"/>
		
			<linearGradient id="XMLID_5_" gradientUnits="userSpaceOnUse" x1="28.9401" y1="428.2169" x2="98.4833" y2="450.6823" gradientTransform="matrix(1 0 0 -1 0 481.2)">
			<stop  offset="0" style="stop-color:#EC9A64"/>
			<stop  offset="0.2308" style="stop-color:#E06C40"/>
			<stop  offset="1" style="stop-color:#EB9034"/>
		</linearGradient>
		<path id="XMLID_35_" class="st2" d="M98.8,24.4C86.3,39.1,73.1,53.6,59.9,68.1C46,52.2,40,45.3,25.7,28.9
			c15.5-3.8,30.8-7.5,45.9-11.3C80.7,19.8,89.7,22.1,98.8,24.4z"/>
		<path id="XMLID_34_" class="st3" d="M4.2,4.7C3.1,3.4,1.1,1.3,0,0c1.8,0.4,5,1.3,6.8,1.7"/>
		
			<linearGradient id="XMLID_6_" gradientUnits="userSpaceOnUse" x1="33.4408" y1="437.9258" x2="56.8579" y2="412.9411" gradientTransform="matrix(1 0 0 -1 0 481.2)">
			<stop  offset="0" style="stop-color:#F4B381"/>
			<stop  offset="0.2308" style="stop-color:#DE6A3F"/>
			<stop  offset="1" style="stop-color:#B83D29"/>
		</linearGradient>
		<polygon id="XMLID_33_" class="st4" points="25.7,28.9 25.7,41.1 59.9,68.1 59.9,68.1 		"/>
		
			<linearGradient id="XMLID_7_" gradientUnits="userSpaceOnUse" x1="4.8522" y1="465.4054" x2="71.8438" y2="481.966" gradientTransform="matrix(1 0 0 -1 0 481.2)">
			<stop  offset="0" style="stop-color:#58595B"/>
			<stop  offset="0.2863" style="stop-color:#1A1A1A"/>
		</linearGradient>
		<polygon id="XMLID_32_" class="st5" points="24.7,27.8 0,0 69,16.9 		"/>
		
			<linearGradient id="XMLID_8_" gradientUnits="userSpaceOnUse" x1="7.2738" y1="466.9696" x2="52.7548" y2="416.7886" gradientTransform="matrix(1 0 0 -1 0 481.2)">
			<stop  offset="0" style="stop-color:#58595B"/>
			<stop  offset="0.2863" style="stop-color:#1A1A1A"/>
		</linearGradient>
		<polygon id="XMLID_31_" class="st6" points="24.7,39.7 0,0 24.7,27.8 		"/>
	</g>
</g>
</svg>
