<svg width="265" height="536" viewBox="0 0 265 536" fill="none" xmlns="http://www.w3.org/2000/svg">
<path d="M42.4366 535.192C31.3869 535.192 20.9948 530.729 13.1021 522.723C5.34098 514.717 1 504.217 1 493.192V42.2128C1 19.3752 19.5478 1 42.3051 1H223.048C245.937 1 264.353 19.5064 264.353 42.2128V493.192C264.353 504.217 260.012 514.717 252.251 522.723C244.358 530.729 233.966 535.192 222.916 535.192H42.4366Z" stroke="#001B48" stroke-opacity="0.18" stroke-miterlimit="10"/>
<path d="M223.179 4.67505H42.4361C21.7835 4.67505 4.9458 21.4752 4.9458 42.2129V493.192C4.9458 513.798 21.7835 531.386 42.4361 531.386H223.179C243.831 531.386 260.669 513.929 260.669 493.192V42.2129C260.801 21.4752 243.963 4.67505 223.179 4.67505Z" stroke="#001B48" stroke-opacity="0.18" stroke-miterlimit="10"/>
<path d="M168.588 515.635H97.1588C96.5011 515.635 96.1064 515.11 96.1064 514.585V513.404C96.1064 512.748 96.6326 512.354 97.1588 512.354H168.588C169.245 512.354 169.64 512.879 169.64 513.404V514.585C169.64 515.11 169.114 515.635 168.588 515.635Z" fill="#001B48" fill-opacity="0.12"/>
</svg>
