<?xml version="1.0" encoding="utf-8"?>
<!-- Generator: Adobe Illustrator 23.0.3, SVG Export Plug-In . SVG Version: 6.00 Build 0)  -->
<svg version="1.1" id="Layer_1" xmlns="http://www.w3.org/2000/svg" xmlns:xlink="http://www.w3.org/1999/xlink" x="0px" y="0px"
	 viewBox="0 0 886 633.5" style="enable-background:new 0 0 886 633.5;" xml:space="preserve">
<style type="text/css">
	.st0{fill:none;stroke:#001B48;stroke-opacity:0.18;}
</style>
<path class="st0" d="M16,0.5h854c8.6,0,15.5,6.9,15.5,15.5v561c0,8.6-6.9,15.5-15.5,15.5H16c-8.6,0-15.5-6.9-15.5-15.5V16
	C0.5,7.4,7.4,0.5,16,0.5z"/>
<path class="st0" d="M17,6.5h854c5.2,0,9.5,4.3,9.5,9.5v561c0,5.2-4.3,9.5-9.5,9.5H17c-5.2,0-9.5-4.3-9.5-9.5V16
	C7.5,10.8,11.8,6.5,17,6.5z"/>
<path class="st0" d="M404,593v41h78v-41"/>
</svg>
